<?xml version="1.0" encoding="utf-8"?>
<!-- Generator: Adobe Illustrator 18.1.1, SVG Export Plug-In . SVG Version: 6.00 Build 0)  -->
<svg version="1.1" id="Layer_1" xmlns="http://www.w3.org/2000/svg" xmlns:xlink="http://www.w3.org/1999/xlink" x="0px" y="0px"
	 viewBox="0 0 1095.7 895.7" enable-background="new 0 0 1095.7 895.7" xml:space="preserve">
<path fill="none" stroke="#000000" stroke-width="6" stroke-miterlimit="10" d="M631.3,175.9c0,47.7-38.7,86.4-86.4,86.4
	c-47.8,0-86.4-38.7-86.4-86.4c0-47.7,38.7-86.4,86.4-86.4C592.6,89.5,631.3,128.2,631.3,175.9z"/>
<path d="M580,175.9c0,19.4-15.7,35.1-35.1,35.1c-19.4,0-35.1-15.7-35.1-35.1c0-19.4,15.7-35.1,35.1-35.1
	C564.3,140.8,580,156.5,580,175.9z"/>
<g>
	<g>
		<path fill="none" stroke="#000000" stroke-width="7" stroke-miterlimit="10" d="M283.3,762.4c0,42.7-34.6,77.3-77.2,77.3
			c-42.7,0-77.2-34.6-77.2-77.3c0-42.7,34.6-77.2,77.2-77.2C248.7,685.2,283.3,719.7,283.3,762.4z"/>
		<path d="M241.2,762.4c0,19.4-15.7,35.1-35.1,35.1c-19.4,0-35.2-15.7-35.2-35.1c0-19.4,15.7-35.1,35.2-35.1
			C225.4,727.3,241.2,743,241.2,762.4z"/>
	</g>
	<g>
		<path fill="none" stroke="#000000" stroke-width="7" stroke-miterlimit="10" d="M963.3,762.4c0,42.7-34.6,77.3-77.2,77.3
			c-42.7,0-77.2-34.6-77.2-77.3c0-42.7,34.6-77.2,77.2-77.2C928.7,685.2,963.3,719.7,963.3,762.4z"/>
		<path d="M921.2,762.4c0,19.4-15.7,35.1-35.1,35.1c-19.4,0-35.2-15.7-35.2-35.1c0-19.4,15.7-35.1,35.2-35.1
			C905.4,727.3,921.2,743,921.2,762.4z"/>
	</g>
</g>
<path fill="none" stroke="#000000" stroke-width="5" stroke-miterlimit="10" d="M528.6,173.8"/>
<path fill="none" stroke="#000000" stroke-width="5" stroke-miterlimit="10" d="M528.6,173.8"/>
<g>
	<path d="M544.8,192.1l324.7,562.4H220.1L544.8,192.1 M544.8,176.1L206.3,762.5h677.1L544.8,176.1L544.8,176.1z"/>
</g>
<circle fill="none" stroke="#000000" stroke-width="8" stroke-miterlimit="10" cx="544.8" cy="567.6" r="94.5"/>
<polygon fill="none" stroke="#000000" stroke-width="7" stroke-miterlimit="10" points="509.3,629.3 473.7,567.6 509.3,506 
	580.4,506 616,567.6 580.4,629.3 "/>
<path fill="none" stroke="#000000" stroke-width="5" stroke-miterlimit="10" d="M475.7,567.6c0,0,27.9-24.9,69.1-24.9
	c41.2,0,69.1,24.9,69.1,24.9s-27.3,26.1-69.1,26.1C503,593.8,475.7,567.6,475.7,567.6z"/>
<circle fill="none" stroke="#000000" stroke-width="6" stroke-miterlimit="10" cx="544.8" cy="568.2" r="25.1"/>
<circle cx="544.8" cy="568.2" r="10.2"/>
<path fill="none" stroke="#000000" stroke-width="5" stroke-miterlimit="10" d="M529.4,493.6"/>
<path fill="none" stroke="#000000" stroke-width="5" stroke-miterlimit="10" d="M529.4,493.6"/>
<g>
	<path d="M700.3,477.3L544.8,746.5L389.4,477.3H700.3 M714.1,469.3H375.6l169.3,293.2L714.1,469.3L714.1,469.3z"/>
</g>
<polyline fill="none" stroke="#000000" stroke-width="2" stroke-miterlimit="10" points="378,635.8 294,551.8 42,551.8 "/>
<polyline fill="none" stroke="#000000" stroke-width="2" stroke-miterlimit="10" points="543.5,353.6 459.5,269.6 207.5,269.6 "/>
<polyline fill="none" stroke="#000000" stroke-width="2" stroke-miterlimit="10" points="708.5,634.8 792.6,550.8 1044.6,550.8 "/>
</svg>
