<?xml version="1.0" encoding="utf-8"?>
<!-- Generator: Adobe Illustrator 19.2.1, SVG Export Plug-In . SVG Version: 6.00 Build 0)  -->
<svg version="1.1" id="Layer_1" xmlns="http://www.w3.org/2000/svg" xmlns:xlink="http://www.w3.org/1999/xlink" x="0px" y="0px"
	 viewBox="0 0 129.1 143" style="enable-background:new 0 0 129.1 143;" xml:space="preserve">
<style type="text/css">
	.st0{fill:none;}
	.st1{fill:#2D2DD3;}
	.st2{fill:#52FF77;}
</style>
<g>
	<g>
		<path class="st0" d="M64.5,28.9c-23.6,0.2-42.3,19-42.5,42.6C22.3,47.9,40.9,29.1,64.5,28.9z"/>
		<path class="st1" d="M64.7,24.9c-25.5-0.2-47,21.3-46.8,46.5c0.2,25.9,20.7,46.7,46.6,46.7c25.9,0.1,46.4-20.5,46.6-46.4
			C111.5,45.9,89.7,25,64.7,24.9z M64.6,114.2C41.4,114.5,21.7,94.4,22,71.5c0.2-23.6,18.9-42.4,42.5-42.6
			c24.1-0.1,43.3,20.3,42.6,42.6C107.1,95.4,88.4,113.8,64.6,114.2z"/>
	</g>
	<path class="st2" d="M62.4,57.9c0-4.3,0-8.7,0-13c0-1.8,0.6-2.6,2-2.6c1.3,0,2,0.8,2,2.6c0,8,0,16,0,24c0,1.2,0.4,2,1.3,2.8
		c6.9,6.1,13.7,12.2,20.6,18.4c0.4,0.4,0.8,0.7,1.2,1.1c0.9,0.9,1,1.9,0.2,2.9c-0.9,0.9-1.9,0.9-2.9,0c-1.2-1-2.4-2.1-3.5-3.1
		c-6.5-5.8-12.9-11.6-19.4-17.3c-1-0.9-1.4-1.8-1.4-3.1C62.5,66.3,62.4,62.1,62.4,57.9z"/>
</g>
</svg>
