<?xml version="1.0" encoding="utf-8"?>
<!-- Generator: Adobe Illustrator 19.2.1, SVG Export Plug-In . SVG Version: 6.00 Build 0)  -->
<svg version="1.1" id="Layer_1" xmlns="http://www.w3.org/2000/svg" xmlns:xlink="http://www.w3.org/1999/xlink" x="0px" y="0px"
	 viewBox="0 0 129.1 143" style="enable-background:new 0 0 129.1 143;" xml:space="preserve">
<style type="text/css">
	.st0{fill:none;stroke:#52FF77;stroke-width:2.7969;stroke-miterlimit:10;}
	.st1{fill-rule:evenodd;clip-rule:evenodd;fill:#2D2DD3;}
	.st2{fill-rule:evenodd;clip-rule:evenodd;fill:none;stroke:#52FF77;stroke-width:2.7969;stroke-miterlimit:10;}
</style>
<path class="st0" d="M118,49.7c-2.1-3.2-6.4-4.2-9.7-2.1L54.4,82c-8.5-8.6-22-10.4-32.6-3.7c-12.2,7.8-15.7,23.9-8,36
	s23.9,15.7,36,8c9.6-6.2,13.9-17.6,11.3-28.1L97.6,71l5.6,8.8c1.2,1.9,3.8,2.5,5.8,1.3s2.5-3.8,1.3-5.8l-5.6-8.8l4.7-3l5.6,8.8
	c1.2,1.9,3.8,2.5,5.8,1.3c1.9-1.2,2.5-3.8,1.3-5.8l-5.7-8.9C119.2,56.8,120,52.8,118,49.7z"/>
<g>
	<path class="st1" d="M44.6,65.7c-1.7,0-3.4,0-5.2,0c-2.4-0.1-3.9-1.5-4.1-3.9c-0.1-1.9-0.1-3.8-0.1-5.8c0-0.7-0.2-1-0.9-1.4
		c-1.3-0.6-2.5-1.4-3.7-2.2c-0.6-0.4-0.9-0.4-1.5-0.1c-1.4,0.8-2.8,1.6-4.2,2.4c-2.6,1.4-4.7,0.9-6.2-1.6c-1.6-2.8-3.2-5.5-4.8-8.3
		c-1.6-2.8-1-4.8,1.8-6.4c1.3-0.8,2.7-1.6,4.1-2.3c0.6-0.3,0.8-0.7,0.8-1.4c-0.1-1.3-0.1-2.6,0-3.9c0-0.7-0.1-1.1-0.7-1.4
		c-1.4-0.7-2.8-1.6-4.2-2.4c-2.7-1.6-3.3-3.7-1.8-6.4c1.6-2.9,3.3-5.8,5-8.6c1.4-2.3,3.4-2.8,5.7-1.6c1.6,0.9,3.2,1.8,4.8,2.7
		c0.5,0.3,0.9,0.4,1.5,0c1.1-0.7,2.3-1.3,3.4-2c0.4-0.3,0.8-0.8,0.8-1.2c0.1-1.7,0-3.4,0-5.2C35.4,1.5,36.9,0,40,0
		c3.1,0,6.2,0,9.4,0c3,0,4.5,1.6,4.5,4.5c0,1.7,0,3.4,0,5.2c0,0.7,0.3,1,0.9,1.3c1.2,0.6,2.5,1.3,3.6,2.1c0.6,0.4,1,0.5,1.6,0.1
		c1.4-0.9,2.8-1.7,4.3-2.5c2.5-1.4,4.6-0.8,6,1.6c1.7,2.9,3.3,5.7,5,8.6c1.5,2.6,0.9,4.7-1.7,6.2c-1.3,0.8-2.7,1.6-4.1,2.3
		c-0.7,0.4-1,0.8-0.9,1.6c0.1,1.4-0.1,2.7,0,4.1c0,0.4,0.3,0.9,0.6,1.1c1.5,0.9,3,1.8,4.5,2.7c2.4,1.4,3,3.5,1.6,5.9
		c-1.6,2.9-3.3,5.8-5,8.7c-1.5,2.4-3.5,3-6,1.6c-1.6-0.9-3.1-1.8-4.7-2.7c-0.3-0.2-0.9-0.2-1.2,0c-1.2,0.6-2.5,1.3-3.6,2.1
		c-0.4,0.2-0.7,0.7-0.7,1.1c-0.1,1.8,0,3.6,0,5.4c0,2.9-1.6,4.4-4.5,4.5C47.8,65.7,46.2,65.7,44.6,65.7
		C44.6,65.7,44.6,65.7,44.6,65.7z M44.6,62.8c1.5,0,3,0,4.6,0c1.5,0,1.8-0.3,1.8-1.8c0-2.2,0-4.4,0-6.6c0-0.9,0.4-1.5,1.3-2
		c1.8-0.9,3.5-1.9,5.2-3c0.9-0.6,1.6-0.7,2.5-0.1c1.9,1.1,3.8,2.2,5.7,3.3c1,0.6,1.6,0.4,2.2-0.6c1.6-2.8,3.2-5.6,4.9-8.4
		c0.5-0.9,0.4-1.6-0.6-2.2c-1.9-1.1-3.9-2.1-5.7-3.3c-0.5-0.3-1-1.1-1-1.7c-0.1-2.2,0.1-4.4,0.1-6.6c0-1,0.3-1.6,1.1-2.1
		c1.9-1,3.7-2.1,5.5-3.1c0.9-0.5,1.1-1.2,0.6-2.1c-1.7-2.9-3.3-5.7-5-8.6c-0.5-0.9-1.1-1.1-2.1-0.5c-1.8,1.1-3.6,2.1-5.4,3.2
		c-1,0.6-1.7,0.5-2.6-0.2c-1.7-1.1-3.4-2.2-5.3-3.1c-1.1-0.5-1.5-1.1-1.5-2.3c0-2.2,0-4.3,0-6.5c0-1.1-0.5-1.6-1.6-1.6
		c-3.1,0-6.2,0-9.4,0c-1.3,0-1.6,0.3-1.6,1.6c0,2.2,0,4.5,0,6.7c0,1-0.4,1.5-1.3,1.9c-1.8,0.9-3.5,1.9-5.2,3
		c-0.9,0.6-1.6,0.7-2.5,0.1c-1.9-1.1-3.8-2.2-5.7-3.3c-0.9-0.5-1.5-0.4-2.1,0.6c-1.6,2.8-3.3,5.6-4.9,8.4c-0.7,1.2-0.6,1.6,0.6,2.3
		c1.8,1.1,3.6,2.1,5.4,3.1c1,0.5,1.2,1.3,1.1,2.4c-0.1,1.9-0.2,3.9,0,5.9c0.1,1.1-0.2,1.7-1.1,2.3c-1.8,1-3.6,2.1-5.4,3.1
		c-1.2,0.7-1.3,1-0.6,2.3c1.6,2.8,3.2,5.5,4.8,8.3c0.6,1.1,1.3,1.1,2.3,0.6c1.8-1,3.5-2,5.3-3.1c0.9-0.5,1.6-0.4,2.5,0.2
		c1.7,1.1,3.5,2.2,5.4,3.1c1,0.5,1.4,1.1,1.4,2.2c-0.1,2.1,0,4.2,0,6.4c0,1.4,0.3,1.7,1.7,1.7C41.5,62.8,43.1,62.8,44.6,62.8z"/>
	<path class="st1" d="M44.7,44.6c-6.5,0-11.8-5.3-11.8-11.9c0-6.6,5.3-11.9,11.9-11.9c6.6,0,11.9,5.3,11.9,11.9
		C56.6,39.3,51.3,44.6,44.7,44.6z M44.8,23.8c-5,0-8.9,3.9-8.9,8.9c0,5,4,9,8.8,9c4.9,0,9-4.1,9-8.9C53.7,27.8,49.7,23.8,44.8,23.8z
		"/>
</g>
<path class="st2" d="M26,113.7c-4.2,0-7.6-3.4-7.6-7.7c0-4.3,3.4-7.7,7.7-7.7c4.3,0,7.7,3.4,7.6,7.7C33.7,110.3,30.3,113.7,26,113.7
	z"/>
</svg>
