<?xml version="1.0" encoding="utf-8"?>
<!-- Generator: Adobe Illustrator 19.2.1, SVG Export Plug-In . SVG Version: 6.00 Build 0)  -->
<svg version="1.1" id="Layer_1" xmlns="http://www.w3.org/2000/svg" xmlns:xlink="http://www.w3.org/1999/xlink" x="0px" y="0px"
	 viewBox="0 0 129.1 143" style="enable-background:new 0 0 129.1 143;" xml:space="preserve">
<style type="text/css">
	.st0{fill:#52FF77;}
	.st1{fill:#2D2DD3;}
</style>
<g>
	<polygon class="st0" points="96.6,95.2 93.9,101.5 98.2,101.3 99.4,103.8 102.3,97.8 99.7,95.2 	"/>
	<polygon class="st0" points="110.2,95.2 107.6,97.8 110.5,103.8 111.7,101.3 116,101.5 113.3,95.2 	"/>
	<path class="st0" d="M114,93.6v-4l4-4l-4-4v-4h-4l-4.8-4.8l-4.8,4.8h-4v4l-4,4l4,4v4h4l4.8,4.8l4.8-4.8H114z M109.2,88l-4,2.4
		l-4-2.4v-4.8l4-2.4l4,2.4V88z"/>
</g>
<path class="st1" d="M126.3,89.4c0-5.9,0-11.8,0-17.8c0-11.6,0-23.3,0-34.9c0-6-2.9-9-8.8-9.1c-11.7,0-102.4,0-106.2,0
	c-2.6,0-4.7,0.8-6.2,2.3c0,0,0,0-0.1,0.1c-1,1.1-1.7,2.5-2,4.2c-0.1,0.6-0.1,1.3-0.2,2c0,0.2,0,0.3,0,0.5c0,5.6,0,11.3,0,16.9l0,0
	c0,5.9,0,11.8,0,17.8c0,11.6,0,23.3,0,34.9c0,6,2.9,9,8.8,9.1c11.7,0,35.4,0.1,55.9,0c12.3,0,46.5,0,50.3,0c2.6,0,4.7-0.8,6.2-2.3
	c0,0,0,0,0.1-0.1c1-1.1,1.8-2.5,2-4.2c0.1-0.6,0.1-1.3,0.2-2c0-0.2,0-0.3,0-0.5C126.3,100.7,126.3,95,126.3,89.4L126.3,89.4z
	 M122.5,89.4c0,5.5,0,11,0,16.4c0,0.6,0,1.1-0.1,1.7c-0.2,2.1-1.1,3.3-2.8,3.9c-0.1,0-0.3,0.1-0.4,0.1l0,0c-0.3,0.1-0.7,0.1-1,0.1
	c-0.6,0-1.1,0-1.7,0c-18.4,0-86.2,0-104.2,0c-0.5,0-1,0-1.5,0c-2.6-0.2-3.8-1.4-4.2-3.9c-0.1-0.7-0.1-1.4-0.1-2.1
	c0-17.3,0-34.6,0-51.9h0.1c0-5.5,0-11,0-16.4c0-0.6,0-1.1,0.1-1.7c0.2-2.1,1.1-3.3,2.8-3.9c0.1,0,0.3-0.1,0.4-0.1l0,0
	c0.3-0.1,0.7-0.1,1-0.1c0.6,0,1.1,0,1.7,0c18.4,0,86.2,0,104.2,0c0.5,0,1,0,1.5,0c2.6,0.2,3.8,1.4,4.2,3.9c0.1,0.7,0.1,1.4,0.1,2.1
	C122.6,54.8,122.6,72.1,122.5,89.4L122.5,89.4z"/>
<path class="st1" d="M62.3,64.2c-0.4-0.3-1.1-0.2-1.6-0.2c-10.5,0-29.9,0-40.4,0c-0.5,0-1.1-0.1-1.5,0.1c-0.6,0.5-1.3,1.2-1.3,1.8
	c0,0.6,0.8,1.3,1.4,1.7c0.3,0.3,1,0.1,1.5,0.1c5.2,0,19.4,0,24.5,0c5.2,0,10.5,0,15.7,0c0.5,0,1.2,0.1,1.6-0.2
	c0.5-0.4,1.2-1.1,1.2-1.7C63.4,65.3,62.8,64.6,62.3,64.2z"/>
<path class="st1" d="M61.5,44.8c-0.3,0-0.6,0-0.8,0c-9.6,0-28.2,0-37.8,0c-0.6,0-1.1,0-1.7,0.2c-1,0.3-1.6,1.7-1,2.5
	c0.5,0.6,1.4,1,2.1,1c5,0.1,18.9,0,23.9,0c5.1,0,10.1,0,15.2,0c1.3,0,2.1-0.8,2.1-1.9C63.4,45.4,62.6,44.9,61.5,44.8z"/>
<path class="st1" d="M62,78.1c-0.4-0.2-1-0.1-1.5-0.1c-5.1,0-10.3,0-15.4,0c-4.5,0-18.1,0-22.6,0c-1.2,0-2.4-0.2-3.4,0.1
	c-0.6,0.2-1.5,1.1-1.5,1.7s0.8,1.3,1.4,1.8c0.2,0.2,0.7,0.1,1,0.1c10.7,0,30.4,0,41.1,0c0.3,0,0.9,0.1,1-0.1
	c0.5-0.6,1.3-1.3,1.3-1.9C63.4,79.2,62.6,78.5,62,78.1z"/>
<path class="st1" d="M40,93.1c-0.4-0.2-1-0.1-1.5-0.1c-5.1,0-0.3,0-5.4,0c-4.5,0-6.1,0-10.6,0c-1.2,0-2.4-0.2-3.4,0.1
	c-0.6,0.2-1.5,1.1-1.5,1.7s0.8,1.3,1.4,1.8c0.2,0.2,0.7,0.1,1,0.1c10.7,0,8.4,0,19.1,0c0.3,0,0.9,0.1,1-0.1c0.5-0.6,1.3-1.3,1.3-1.9
	C41.4,94.2,40.6,93.5,40,93.1z"/>
</svg>
