<?xml version="1.0" encoding="utf-8"?>
<!-- Generator: Adobe Illustrator 19.2.1, SVG Export Plug-In . SVG Version: 6.00 Build 0)  -->
<svg version="1.1" id="Layer_1" xmlns="http://www.w3.org/2000/svg" xmlns:xlink="http://www.w3.org/1999/xlink" x="0px" y="0px"
	 viewBox="0 0 129.1 143" style="enable-background:new 0 0 129.1 143;" xml:space="preserve">
<style type="text/css">
	.st0{fill:#52FF77;}
	.st1{fill-rule:evenodd;clip-rule:evenodd;fill:#2D2DD3;}
</style>
<g>
	<polygon class="st0" points="96.6,107.7 93.9,114 98.2,113.8 99.4,116.3 102.3,110.3 99.7,107.7 	"/>
	<polygon class="st0" points="110.2,107.7 107.6,110.3 110.5,116.3 111.7,113.8 116,114 113.3,107.7 	"/>
	<path class="st0" d="M114,106.1v-4l4-4l-4-4v-4h-4l-4.8-4.8l-4.8,4.8h-4v4l-4,4l4,4v4h4l4.8,4.8l4.8-4.8H114z M109.2,100.5l-4,2.4
		l-4-2.4v-4.8l4-2.4l4,2.4V100.5z"/>
</g>
<path class="st1" d="M126.3,101.9c0-5.9,0-11.8,0-17.8c0-11.6,0-23.3,0-34.9c0-6-2.9-9-8.8-9.1c-11.7,0-102.4,0-106.2,0
	c-2.6,0-4.7,0.8-6.2,2.3c0,0,0,0-0.1,0.1c-1,1.1-1.7,2.5-2,4.2c-0.1,0.6-0.1,1.3-0.2,2c0,0.2,0,0.3,0,0.5c0,5.6,0,11.3,0,16.9h0
	c0,5.9,0,11.8,0,17.8c0,11.6,0,23.3,0,34.9c0,6,2.9,9,8.8,9.1c11.7,0,35.4,0.1,55.9,0c12.3,0,46.5,0,50.3,0c2.6,0,4.7-0.8,6.2-2.3
	c0,0,0,0,0.1-0.1c1-1.1,1.8-2.5,2-4.2c0.1-0.6,0.1-1.3,0.2-2c0-0.2,0-0.3,0-0.5C126.3,113.2,126.3,107.5,126.3,101.9L126.3,101.9z
	 M122.5,101.9c0,5.5,0,11,0,16.4c0,0.6,0,1.1-0.1,1.7c-0.2,2.1-1.1,3.3-2.8,3.9c-0.1,0-0.3,0.1-0.4,0.1c0,0,0,0,0,0
	c-0.3,0.1-0.7,0.1-1,0.1c-0.6,0-1.1,0-1.7,0c-18.4,0-86.2,0-104.2,0c-0.5,0-1,0-1.5,0c-2.6-0.2-3.8-1.4-4.2-3.9
	c-0.1-0.7-0.1-1.4-0.1-2.1c0-17.3,0-34.6,0-51.9h0.1c0-5.5,0-11,0-16.4c0-0.6,0-1.1,0.1-1.7c0.2-2.1,1.1-3.3,2.8-3.9
	c0.1,0,0.3-0.1,0.4-0.1c0,0,0,0,0,0c0.3-0.1,0.7-0.1,1-0.1c0.6,0,1.1,0,1.7,0c18.4,0,86.2,0,104.2,0c0.5,0,1,0,1.5,0
	c2.6,0.2,3.8,1.4,4.2,3.9c0.1,0.7,0.1,1.4,0.1,2.1C122.6,67.3,122.6,84.6,122.5,101.9L122.5,101.9z"/>
<path class="st1" d="M62.3,76.7c-0.4-0.3-1.1-0.2-1.6-0.2c-10.5,0-29.9,0-40.4,0c-0.5,0-1.1-0.1-1.5,0.1c-0.6,0.5-1.3,1.2-1.3,1.8
	c0,0.6,0.8,1.3,1.4,1.7c0.3,0.3,1,0.1,1.5,0.1c5.2,0,19.4,0,24.5,0c5.2,0,10.5,0,15.7,0c0.5,0,1.2,0.1,1.6-0.2
	c0.5-0.4,1.2-1.1,1.2-1.7C63.4,77.8,62.8,77.1,62.3,76.7z"/>
<path class="st1" d="M61.5,57.3c-0.3,0-0.6,0-0.8,0c-9.6,0-28.2,0-37.8,0c-0.6,0-1.1,0-1.7,0.2c-1,0.3-1.6,1.7-1,2.5
	c0.5,0.6,1.4,1,2.1,1c5,0.1,18.9,0,23.9,0c5.1,0,10.1,0,15.2,0c1.3,0,2.1-0.8,2.1-1.9C63.4,57.9,62.6,57.4,61.5,57.3z"/>
<path class="st1" d="M62,90.6c-0.4-0.2-1-0.1-1.5-0.1c-5.1,0-10.3,0-15.4,0c-4.5,0-18.1,0-22.6,0c-1.2,0-2.4-0.2-3.4,0.1
	c-0.6,0.2-1.5,1.1-1.5,1.7c0,0.6,0.8,1.3,1.4,1.8c0.2,0.2,0.7,0.1,1,0.1c10.7,0,30.4,0,41.1,0c0.3,0,0.9,0.1,1-0.1
	c0.5-0.6,1.3-1.3,1.3-1.9C63.4,91.7,62.6,91,62,90.6z"/>
<path class="st1" d="M40,105.6c-0.4-0.2-1-0.1-1.5-0.1c-5.1,0-0.3,0-5.4,0c-4.5,0-6.1,0-10.6,0c-1.2,0-2.4-0.2-3.4,0.1
	c-0.6,0.2-1.5,1.1-1.5,1.7c0,0.6,0.8,1.3,1.4,1.8c0.2,0.2,0.7,0.1,1,0.1c10.7,0,8.4,0,19.1,0c0.3,0,0.9,0.1,1-0.1
	c0.5-0.6,1.3-1.3,1.3-1.9C41.4,106.7,40.6,106,40,105.6z"/>
</svg>
