<?xml version="1.0" encoding="utf-8"?>
<!-- Generator: Adobe Illustrator 19.2.1, SVG Export Plug-In . SVG Version: 6.00 Build 0)  -->
<svg version="1.1" id="Layer_1" xmlns="http://www.w3.org/2000/svg" xmlns:xlink="http://www.w3.org/1999/xlink" x="0px" y="0px"
	 viewBox="0 0 129.1 143" style="enable-background:new 0 0 129.1 143;" xml:space="preserve">
<style type="text/css">
	.st0{fill:#2D2DD3;}
	.st1{fill:#52FF77;}
</style>
<g>
	<g>
		<g>
			<path class="st0" d="M64.5,126.5c-3.1,0-6.2,0.1-9.2,0c-4.3-0.1-7-2.4-7.2-6.5c-0.2-3.2-0.1-6.4-0.1-9.7c0-1.2-0.4-1.8-1.5-2.3
				c-2.3-1.1-4.5-2.3-6.6-3.7c-1-0.6-1.7-0.7-2.7-0.1c-2.4,1.4-4.9,2.7-7.4,4c-4.7,2.4-8.4,1.5-11.1-2.8c-2.9-4.6-5.8-9.3-8.6-13.9
				c-2.8-4.7-1.8-8.1,3.2-10.8c2.4-1.3,4.8-2.7,7.2-3.9c1.1-0.5,1.5-1.1,1.4-2.4c-0.2-2.2-0.1-4.4,0-6.6c0.1-1.2-0.2-1.8-1.3-2.4
				c-2.5-1.2-5-2.6-7.4-4C8.4,59,7.3,55.4,10,50.9c2.9-4.8,5.9-9.6,9-14.4c2.5-3.8,6.1-4.8,10.3-2.7c2.9,1.5,5.7,3,8.6,4.6
				c1,0.5,1.7,0.6,2.7,0c1.9-1.2,4.1-2.2,6.1-3.4c0.7-0.4,1.3-1.4,1.4-2.1c0.2-2.9,0-5.8,0.1-8.6c0.1-5.3,2.7-7.7,8.3-7.8
				c5.6,0,11.2,0,16.7,0c5.3,0,8,2.6,8.1,7.6c0,2.9,0.1,5.8,0,8.6c0,1.2,0.5,1.7,1.6,2.3c2.2,1.1,4.4,2.3,6.5,3.6
				c1,0.7,1.8,0.8,2.8,0.1c2.5-1.4,5-2.8,7.6-4.1c4.4-2.3,8.2-1.4,10.7,2.7c3,4.8,6,9.6,8.9,14.5c2.6,4.3,1.6,7.8-3,10.4
				c-2.4,1.3-4.8,2.7-7.3,3.9c-1.2,0.6-1.7,1.3-1.6,2.7c0.2,2.3-0.1,4.6,0,6.8c0,0.6,0.5,1.5,1.1,1.8c2.7,1.6,5.4,3,8.1,4.5
				c4.2,2.4,5.3,5.9,2.9,9.9c-2.9,4.9-5.9,9.8-9,14.6c-2.6,4.1-6.3,5-10.8,2.7c-2.8-1.4-5.6-3-8.4-4.5c-0.6-0.3-1.6-0.3-2.2,0
				c-2.2,1.1-4.4,2.2-6.5,3.5c-0.6,0.4-1.2,1.2-1.3,1.9c-0.1,3,0,6-0.1,9.1c-0.1,4.9-2.8,7.4-8,7.5
				C70.2,126.5,67.4,126.5,64.5,126.5C64.5,126.5,64.5,126.5,64.5,126.5z M64.5,121.6c2.7,0,5.4,0,8.2,0c2.7,0,3.1-0.5,3.2-2.9
				c0-3.7,0-7.4,0-11.1c0-1.6,0.7-2.5,2.3-3.3c3.2-1.5,6.3-3.1,9.3-4.9c1.6-1,2.9-1.2,4.5-0.2c3.4,1.9,6.8,3.7,10.2,5.5
				c1.7,0.9,2.9,0.6,3.9-1c2.9-4.7,5.8-9.4,8.7-14.1c1-1.6,0.7-2.7-1-3.6c-3.4-1.8-6.9-3.6-10.2-5.6c-0.9-0.5-1.7-1.9-1.8-2.9
				c-0.1-3.7,0.2-7.4,0.1-11c0-1.6,0.5-2.7,2-3.4c3.3-1.7,6.6-3.5,9.9-5.2c1.6-0.9,2-2,1-3.5c-3-4.8-6-9.6-8.9-14.5
				c-0.9-1.5-2-1.9-3.7-0.9c-3.2,1.8-6.4,3.5-9.6,5.3c-1.7,1-3,0.8-4.7-0.3c-3-1.9-6.1-3.7-9.4-5.2c-1.9-0.9-2.7-1.9-2.7-3.8
				c0.1-3.6,0-7.2,0-10.9c0-1.9-0.9-2.7-2.9-2.6c-5.6,0-11.2,0-16.7,0c-2.4,0-2.9,0.5-2.9,2.7c0,3.8,0,7.5,0,11.3
				c0,1.6-0.7,2.5-2.3,3.3c-3.2,1.5-6.3,3.2-9.3,5c-1.6,1-2.9,1.2-4.5,0.2c-3.4-1.9-6.8-3.7-10.2-5.5c-1.6-0.9-2.8-0.6-3.7,0.9
				c-2.9,4.7-5.8,9.4-8.7,14.1c-1.3,2-1,2.7,1.1,3.9c3.2,1.8,6.4,3.5,9.7,5.2c1.8,0.9,2.2,2.1,2,4c-0.2,3.3-0.3,6.6-0.1,9.8
				c0.1,1.8-0.3,2.9-2,3.8c-3.2,1.7-6.5,3.5-9.7,5.2c-2.2,1.2-2.4,1.7-1.1,3.9c2.8,4.7,5.7,9.3,8.5,13.9c1.1,1.8,2.3,1.9,4,0.9
				c3.1-1.7,6.3-3.4,9.5-5.1c1.6-0.9,2.9-0.7,4.5,0.3c3.1,1.9,6.3,3.7,9.6,5.2c1.8,0.9,2.6,1.9,2.5,3.7c-0.1,3.6,0,7.1,0,10.7
				c0,2.3,0.5,2.8,3.1,2.8C59,121.6,61.8,121.6,64.5,121.6z"/>
		</g>
		<g>
			<path class="st0" d="M64.7,91.1c-11.7,0-21.1-8.9-21.1-19.9c0-11.1,9.4-20,21.2-20c11.8,0,21.2,8.9,21.2,20
				C85.9,82.3,76.5,91.1,64.7,91.1z M64.8,56.3c-9,0-15.9,6.4-15.9,14.9c0,8.3,7.1,15,15.8,15.1c8.7,0,16-6.8,16-15
				C80.8,63,73.7,56.3,64.8,56.3z"/>
		</g>
	</g>
	<g>
		<rect x="63" y="29" class="st1" width="3.2" height="17.5"/>
	</g>
	<g>
		<rect x="63.2" y="97.4" class="st1" width="3.1" height="16.6"/>
	</g>
	<g>
		
			<rect x="23.8" y="86.5" transform="matrix(0.8941 -0.4479 0.4479 0.8941 -36.0062 23.982)" class="st1" width="17.8" height="3.2"/>
	</g>
	<g>
		<rect x="86.6" y="53.1" transform="matrix(0.894 -0.448 0.448 0.894 -14.4138 48.4007)" class="st1" width="17" height="3.1"/>
	</g>
	<g>
		<rect x="31" y="43.9" transform="matrix(0.4942 -0.8693 0.8693 0.4942 -29.5346 55.1006)" class="st1" width="3.2" height="18"/>
	</g>
	<g>
		<rect x="94" y="81.7" transform="matrix(0.4941 -0.8694 0.8694 0.4941 -30.4869 128.9609)" class="st1" width="3.2" height="18"/>
	</g>
</g>
</svg>
