<?xml version="1.0" encoding="utf-8"?>
<!-- Generator: Adobe Illustrator 19.2.1, SVG Export Plug-In . SVG Version: 6.00 Build 0)  -->
<svg version="1.1" id="Layer_1" xmlns="http://www.w3.org/2000/svg" xmlns:xlink="http://www.w3.org/1999/xlink" x="0px" y="0px"
	 viewBox="0 0 731.1 411.4" style="enable-background:new 0 0 731.1 411.4;" xml:space="preserve">
<style type="text/css">
	.st0{fill:#2D2DD3;}
</style>
<g>
	<path class="st0" d="M144.5,86c0,7.5-2.5,13.9-7.3,18.6c-1.8,1.8-3.9,3.3-6.2,4.4c-7,3.6-14.4,3.5-22.2,3.5H70.6V20h41.1
		c0.7,0,6.6,0.1,12.6,3.4c3.9,2,7,4.8,9.2,8.3c2.7,4.2,4.2,9.2,4.2,15.1c0,4.3-0.8,8.1-2.1,11.4c-0.8,2.1-2,4-3.3,5.7
		C140.2,68.7,144.5,76.3,144.5,86z M104.7,34.3H93.5c-2,0-3.9,0-6,0v25c0,0,7.9,0,11.2,0h10.4c4,0,8.2-0.3,11.2-3.1
		c2.1-2.1,3.1-5.2,3.1-9.4c0-3.3-0.7-7.9-5.3-10.5c-2.1-1.3-4.3-1.7-6.6-2C109.2,34.2,107,34.3,104.7,34.3z M130.2,86
		c0-5.1-1.8-8.2-6.2-10.3c-3.3-1.6-6.8-2.1-10.3-2.1H87.5v24.6h2.9c3.3,0,6.6,0,10,0h10.8c3.5,0,6.9,0,10.1-1c2.1-0.5,4.4-1.3,6-2.9
		C129.3,92.3,130.2,89.6,130.2,86z"/>
	<path class="st0" d="M265.4,98.2v14.3h-60.6V20h16.9v78.2H265.4z"/>
	<path class="st0" d="M313.3,98.2h79.6v14.3h-79.6"/>
	<g>
		<polygon class="st0" points="235.1,156 186.4,252 203.9,252 235.1,190.6 266.2,252 283.7,252 		"/>
	</g>
	<path class="st0" d="M356.3,252.7c-6.5,0-12.6-1.3-18.5-3.8c-5.7-2.3-10.8-5.7-15.1-10.1c-4.4-4.3-7.8-9.4-10.1-15.1
		c-2.5-5.9-3.8-12-3.8-18.3c0-6.5,1.3-12.6,3.8-18.5c2.3-5.7,5.7-10.8,10.1-15.1c4.3-4.4,9.4-7.8,15.1-10.1c5.9-2.5,12-3.8,18.5-3.8
		c7.4,0,14.7,1.7,21.3,5.1c6.4,3.3,12,7.9,16.4,13.7l-12.5,9.4c-2.9-3.8-6.6-6.9-10.9-9.1c-4.6-2.2-9.4-3.4-14.3-3.4
		c-8.6,0-16.5,3.3-22.5,9.4c-6.1,6-9.4,13.9-9.4,22.5c0,8.5,3.3,16.4,9.4,22.4c6,6.1,13.9,9.4,22.5,9.4c5.6,0,11.3-1.6,16.1-4.4
		c4.8-2.9,8.7-6.9,11.4-11.7l13.5,7.8c-4,7.2-9.9,13.1-17,17.3C373,250.3,364.7,252.7,356.3,252.7z"/>
	<path class="st0" d="M444.6,199.1l37.1-40.3H503l-42.4,45.9l42,46.6h-21.1l-36.9-41"/>
	<g>
		<polygon class="st0" points="353.1,294 304.4,390 321.9,390 353.1,329.2 384.2,390 401.7,390 		"/>
	</g>
	<path class="st0" d="M513.8,355.9c-0.9,8.7-4.8,18.1-10.9,24.5c-3.4,3.5-7.4,6.2-12.1,8.1c-4.9,2-10.7,3-16.9,3c-6.4,0-12.1-1-17-3
		c-4.7-1.8-8.7-4.6-12.1-8.1c-2.5-2.5-4.4-5.5-6.1-8.6c-2.1-4-3.6-8.6-4.4-13.3c-0.8-4.9-0.8-10-0.8-15.1v-45.9h16.9v50.3
		c0,7.5,1,15.9,6.6,21.5c3.9,3.9,9.4,5.9,16.9,5.9c7.4,0,12.9-2,16.8-5.9c5.6-5.6,6.6-13.9,6.6-21.5v-50.3h16.9v45.9
		C514.2,347.6,514.3,351.7,513.8,355.9z"/>
	<path class="st0" d="M610.4,311.8v9.1h-0.3v14.3l0.3,54.8l0,0h-16.9l1.7-54.8l-1.7,54.8l0.3-69.1h-0.3v-9.1h-29.1v-14.3h75.2v14.3
		H610.4z"/>
</g>
</svg>
