<?xml version="1.0" encoding="utf-8"?>
<!-- Generator: Adobe Illustrator 19.2.1, SVG Export Plug-In . SVG Version: 6.00 Build 0)  -->
<svg version="1.1" id="Layer_1" xmlns="http://www.w3.org/2000/svg" xmlns:xlink="http://www.w3.org/1999/xlink" x="0px" y="0px"
	 viewBox="0 0 529 199.5" style="enable-background:new 0 0 529 199.5;" xml:space="preserve">
<style type="text/css">
	.st0{fill:none;stroke:#000000;stroke-width:9;stroke-miterlimit:10;}
	.st1{fill:none;stroke:#000000;stroke-width:8;stroke-miterlimit:10;}
	.st2{fill:none;stroke:#000000;stroke-width:7;stroke-miterlimit:10;}
	.st3{fill:none;stroke:#000000;stroke-width:5;stroke-miterlimit:10;}
	.st4{fill:none;stroke:#000000;stroke-width:6;stroke-miterlimit:10;}
</style>
<path class="st0" d="M6.6,97.5c0,0,104.1-93,257.9-93c153.8,0,257.9,93,257.9,93S420.7,195,264.5,195C108.3,195,6.6,97.5,6.6,97.5z"
	/>
<g>
	<circle class="st1" cx="264.5" cy="99.8" r="94.5"/>
	<polygon class="st2" points="228.9,161.4 193.4,99.8 228.9,38.1 300.1,38.1 335.7,99.8 300.1,161.4 	"/>
	<path class="st3" d="M195.4,99.8c0,0,27.9-24.9,69.1-24.9c41.2,0,69.1,24.9,69.1,24.9s-27.3,26.1-69.1,26.1
		C222.7,125.9,195.4,99.8,195.4,99.8z"/>
	<circle class="st4" cx="264.5" cy="100.4" r="25.1"/>
	<circle cx="264.5" cy="100.4" r="10.2"/>
	<path class="st3" d="M249,25.8"/>
	<path class="st3" d="M249,25.8"/>
</g>
</svg>
