<?xml version="1.0" encoding="utf-8"?>
<!-- Generator: Adobe Illustrator 19.2.1, SVG Export Plug-In . SVG Version: 6.00 Build 0)  -->
<svg version="1.1" id="Layer_1" xmlns="http://www.w3.org/2000/svg" xmlns:xlink="http://www.w3.org/1999/xlink" x="0px" y="0px"
	 viewBox="0 0 29.4 29.4" style="enable-background:new 0 0 29.4 29.4;" xml:space="preserve">
<style type="text/css">
	.st0{fill:#2D2DD3;}
	.st1{fill:#FFFFFF;}
</style>
<path class="st0" d="M29.4,14.7c0,8.1-6.6,14.7-14.7,14.7C6.6,29.4,0,22.8,0,14.7S6.6,0,14.7,0C22.8,0,29.4,6.6,29.4,14.7"/>
<g>
	<path class="st1" d="M11.4,11.4v1.3h2.1v1.2h-2.1v5.2h-1.2v-5.2H8.6v-1.2h1.6v-1.3c0-0.2,0-0.3,0.1-0.5s0.1-0.3,0.3-0.4
		c0.1-0.1,0.2-0.2,0.4-0.3c0.1-0.1,0.3-0.1,0.5-0.1h2.1v1.2H11.4z"/>
	<path class="st1" d="M20.8,18c0,0.2,0,0.3-0.1,0.5c-0.1,0.1-0.1,0.3-0.3,0.4c-0.1,0.1-0.2,0.2-0.4,0.3s-0.3,0.1-0.5,0.1h-3.3
		c-0.2,0-0.3,0-0.5-0.1c-0.1-0.1-0.3-0.1-0.4-0.3c-0.1-0.1-0.2-0.2-0.3-0.4c-0.1-0.1-0.1-0.3-0.1-0.5v-7.7h1.2v3.6
		c0-0.2,0-0.3,0.1-0.4c0.1-0.1,0.2-0.3,0.3-0.4c0.1-0.1,0.2-0.2,0.4-0.2s0.3-0.1,0.5-0.1h2.1c0.2,0,0.3,0,0.5,0.1s0.3,0.1,0.4,0.3
		c0.1,0.1,0.2,0.2,0.3,0.4c0.1,0.1,0.1,0.3,0.1,0.5V18z M16.3,13.9V18h3.3v-4.1H16.3z"/>
</g>
</svg>
