<?xml version="1.0" encoding="utf-8"?>
<!-- Generator: Adobe Illustrator 18.1.1, SVG Export Plug-In . SVG Version: 6.00 Build 0)  -->
<svg version="1.1" id="Layer_1" xmlns="http://www.w3.org/2000/svg" xmlns:xlink="http://www.w3.org/1999/xlink" x="0px" y="0px"
	 viewBox="0 0 59.4 68.2" enable-background="new 0 0 59.4 68.2" xml:space="preserve">
<g>
	<path fill="#FF1F71" d="M38.9,55.1l-1.8-0.5l10.6-41.6L12.7,31.4l-0.8-1.6l36.9-19.3c0.3-0.2,0.7-0.1,1,0.1c0.3,0.2,0.4,0.6,0.3,1
		L38.9,55.1z"/>
	<g>
		<path fill="#FF1F71" d="M38.1,55.4c-0.2,0-0.4-0.1-0.5-0.3l-9.9-19.3c-0.1-0.2-0.1-0.4,0.1-0.6l21-24.3c0.2-0.2,0.4-0.2,0.7-0.1
			c0.2,0.1,0.3,0.4,0.3,0.6L38.6,55C38.5,55.3,38.3,55.4,38.1,55.4C38.1,55.4,38.1,55.4,38.1,55.4z M28.8,35.7l9,17.7l10.2-39.9
			L28.8,35.7z"/>
	</g>
	<g>
		<path fill="#FF1F71" d="M38.1,55.4c-0.2,0-0.4-0.1-0.5-0.3l-9.7-19l-14-0.2c-0.3,0-0.5-0.3-0.5-0.5s0.3-0.5,0.5-0.5l0,0l14.3,0.2
			c0.2,0,0.4,0.1,0.5,0.3l9.9,19.3c0.1,0.3,0,0.6-0.2,0.7C38.2,55.4,38.1,55.4,38.1,55.4z"/>
	</g>
	<g>
		<path fill="#FF1F71" d="M8.8,39.8L8.8,39.8c-2.5,0-4.7-1.7-5.3-4.1c-0.4-1.4-0.2-2.9,0.5-4.2c0.7-1.3,1.9-2.2,3.4-2.6
			c0.5-0.1,1-0.2,1.4-0.2c2.5,0,4.7,1.7,5.3,4.1c0.8,2.9-1,6-3.9,6.8C9.8,39.7,9.3,39.8,8.8,39.8z M8.9,29.8c-0.4,0-0.8,0.1-1.2,0.1
			C6.5,30.3,5.6,31,5,32c-0.6,1-0.8,2.2-0.4,3.4c0.5,1.9,2.3,3.3,4.3,3.3l0,0c0.4,0,0.8-0.1,1.2-0.1c2.4-0.6,3.8-3.1,3.1-5.5
			C12.6,31.2,10.8,29.8,8.9,29.8z"/>
	</g>
	<path fill="#FF1F71" d="M6.4,34.9c-0.4-1.4,0.4-2.8,1.8-3.2c1.4-0.4,2.8,0.4,3.2,1.8s-0.4,2.8-1.8,3.2C8.2,37.1,6.8,36.3,6.4,34.9z
		"/>
	<g>
		<path fill="#FF1F71" d="M46.3,12.1c-0.4-1.6,0.5-3.2,2.1-3.7C50,8,51.6,9,52.1,10.6c0.4,1.6-0.5,3.2-2.1,3.6
			C48.4,14.7,46.7,13.7,46.3,12.1z"/>
	</g>
	<g>
		<path fill="#FF1F71" d="M35.5,55.6c-0.4-1.4,0.4-2.8,1.8-3.2s2.8,0.4,3.2,1.8c0.4,1.4-0.4,2.8-1.8,3.2
			C37.3,57.8,35.9,57,35.5,55.6z"/>
	</g>
	<g>
		<path fill="#FF1F71" d="M24.3,36.8c-0.6-2.2,0.7-4.4,2.9-5c2.2-0.6,4.4,0.7,5,2.9c0.6,2.2-0.7,4.4-2.9,5
			C27.1,40.2,24.9,38.9,24.3,36.8z"/>
	</g>
	<g>
		<path fill="#FF1F71" d="M49.2,55.4c-0.3-1.1,0.3-2.2,1.4-2.4c1.1-0.3,2.2,0.3,2.4,1.4c0.3,1.1-0.3,2.2-1.4,2.4
			C50.6,57.1,49.5,56.5,49.2,55.4z"/>
	</g>
	<g>
		<line fill="none" x1="38.1" y1="54.9" x2="46.8" y2="54.9"/>
		<path fill="#FF1F71" d="M38.1,55.4c-0.3,0-0.5-0.2-0.5-0.5s0.2-0.5,0.5-0.5h8.7c0.3,0,0.5,0.2,0.5,0.5s-0.2,0.5-0.5,0.5H38.1z"/>
	</g>
	<g>
		<path fill="#FF1F71" d="M51.1,59.8L51.1,59.8c-2.2,0-4.2-1.5-4.7-3.6c-0.3-1.3-0.2-2.6,0.5-3.7c0.7-1.1,1.7-2,3-2.3
			c0.4-0.1,0.9-0.2,1.3-0.2c2.2,0,4.2,1.5,4.7,3.6c0.7,2.6-0.8,5.3-3.5,6C52,59.8,51.6,59.8,51.1,59.8z M51.1,51.1
			c-0.3,0-0.7,0-1,0.1c-1,0.3-1.8,0.9-2.3,1.8c-0.5,0.9-0.6,1.9-0.4,2.9c0.5,1.7,2,2.8,3.7,2.8l0,0c0.3,0,0.7,0,1-0.1
			c2-0.5,3.2-2.7,2.7-4.7C54.4,52.2,52.9,51.1,51.1,51.1z"/>
	</g>
	<g>
		<path fill="#FF1F71" d="M11.3,38.6"/>
	</g>
	<g>
		<path fill="#FF1F71" d="M11.3,39.2"/>
	</g>
	<g>
		
			<rect x="9.6" y="45.6" transform="matrix(-0.8388 -0.5445 0.5445 -0.8388 20.7837 99.1115)" fill="#FF1F71" width="31" height="1.8"/>
	</g>
</g>
</svg>
