<?xml version="1.0" encoding="utf-8"?>
<!-- Generator: Adobe Illustrator 18.1.1, SVG Export Plug-In . SVG Version: 6.00 Build 0)  -->
<svg version="1.1" id="Layer_1" xmlns="http://www.w3.org/2000/svg" xmlns:xlink="http://www.w3.org/1999/xlink" x="0px" y="0px"
	 viewBox="0 0 59.4 68.2" enable-background="new 0 0 59.4 68.2" xml:space="preserve">
<g>
	<g>
		<path fill="#FF1F71" d="M46,52.6c1,1,2.6,0.9,3.6-0.1c1-1,0.9-2.6-0.1-3.6c-1-1-2.6-0.9-3.6,0.1C45,50,45,51.7,46,52.6z"/>
	</g>
	<g>
		<path fill="#FF1F71" d="M47.8,56.9L47.8,56.9c-1.6,0-3.1-0.6-4.2-1.7c-1.2-1.1-1.8-2.7-1.9-4.3s0.6-3.2,1.7-4.4
			c1.2-1.2,2.7-1.9,4.4-1.9c1.6,0,3.1,0.6,4.2,1.7c2.4,2.3,2.5,6.2,0.2,8.6C51,56.2,49.4,56.9,47.8,56.9z M47.8,45.8
			c-1.4,0-2.7,0.5-3.6,1.6c-0.9,1-1.4,2.2-1.4,3.6c0,1.3,0.6,2.6,1.6,3.5c0.9,0.9,2.2,1.4,3.5,1.4c1.4,0,2.7-0.5,3.6-1.6
			c1.9-2,1.9-5.2-0.1-7.1C50.3,46.3,49.1,45.8,47.8,45.8z"/>
	</g>
	<g>
		<path fill="#FF1F71" d="M12.3,21.9L12.3,21.9c-1.4,0-2.6-0.5-3.6-1.4c-2.1-2-2.1-5.3-0.1-7.3c1-1,2.3-1.6,3.8-1.6
			c1.4,0,2.6,0.5,3.6,1.4c1,1,1.6,2.3,1.6,3.6s-0.5,2.7-1.4,3.7C15,21.4,13.7,21.9,12.3,21.9z M12.3,12.6c-1.1,0-2.2,0.5-3,1.3
			c-1.6,1.6-1.5,4.2,0.1,5.8c0.8,0.7,1.8,1.1,2.8,1.1l0,0c1.1,0,2.2-0.5,3-1.3c0.8-0.8,1.2-1.8,1.1-2.9c0-1.1-0.5-2.1-1.3-2.9
			C14.4,13.1,13.4,12.6,12.3,12.6z"/>
	</g>
	<g>
		<path fill="#FF1F71" d="M31.3,32.4c0.8,0.8,0.8,2,0.1,2.8c-0.8,0.8-2,0.8-2.8,0.1c-0.8-0.8-0.8-2-0.1-2.8
			C29.3,31.7,30.6,31.7,31.3,32.4z"/>
	</g>
	<g>
		<path fill="#FF1F71" d="M30,39c-1.4,0-2.6-0.5-3.6-1.4c-1-1-1.6-2.3-1.6-3.6c0-1.4,0.5-2.7,1.4-3.7c1-1,2.3-1.6,3.8-1.6
			c1.4,0,2.6,0.5,3.6,1.4c2.1,2,2.1,5.3,0.1,7.4C32.8,38.5,31.4,39,30,39z M30,29.7c-1.1,0-2.2,0.5-3,1.3c-0.8,0.8-1.2,1.8-1.2,2.9
			s0.5,2.1,1.3,2.9c0.8,0.7,1.8,1.2,2.8,1.2c1.1,0,2.2-0.5,3-1.3c1.6-1.6,1.5-4.3-0.1-5.8C32.1,30.1,31.1,29.7,30,29.7z"/>
	</g>
	<g>
		<path fill="#FF1F71" d="M4.2,42.4c1,1,2.6,0.9,3.6-0.1c1-1,0.9-2.6-0.1-3.6s-2.6-0.9-3.6,0.1C3.2,39.8,3.2,41.4,4.2,42.4z"/>
	</g>
	<g>
		<path fill="#FF1F71" d="M51.6,28.8c1,1,2.6,0.9,3.6-0.1c1-1,0.9-2.6-0.1-3.6s-2.6-0.9-3.6,0.1S50.6,27.8,51.6,28.8z"/>
	</g>
	<g>
		<path fill="#FF1F71" d="M10.5,18.6c1,1,2.6,0.9,3.6-0.1s0.9-2.6-0.1-3.6S11.4,14,10.5,15S9.5,17.6,10.5,18.6z"/>
	</g>
	<g>
		<polygon fill="#FF1F71" points="23.8,58.8 5.7,41.4 6.9,40.1 24.3,56.8 46.9,50.2 52.5,27.3 35.5,11 16.9,16.5 16.4,14.7 36,9 
			54.5,26.8 48.4,51.7 		"/>
	</g>
	<g>
		<path fill="#FF1F71" d="M25.9,50.8c-0.1,0-0.3-0.1-0.4-0.1L13.4,39c-0.1-0.1-0.2-0.3-0.1-0.5l4-16.3c0.1-0.2,0.2-0.3,0.4-0.4
			l16.1-4.7c0.2-0.1,0.4,0,0.5,0.1l12.1,11.6c0.1,0.1,0.2,0.3,0.1,0.5l-4,16.3c-0.1,0.2-0.2,0.3-0.4,0.4L26,50.8
			C26,50.8,25.9,50.8,25.9,50.8z M14.4,38.4L26,49.6l15.5-4.5l3.9-15.7L33.8,18.2l-15.5,4.5L14.4,38.4z"/>
	</g>
	<g>
		<path fill="#FF1F71" d="M47.6,51.5c-0.1,0-0.3-0.1-0.4-0.1l-5.6-5.4c-0.1-0.1-0.2-0.3-0.1-0.5l4-16.3c0.1-0.2,0.2-0.3,0.4-0.4
			l7.5-2.2c0.2-0.1,0.4,0,0.5,0.1c0.1,0.1,0.2,0.3,0.1,0.5l-5.9,23.9c-0.1,0.2-0.2,0.3-0.4,0.4C47.7,51.5,47.7,51.5,47.6,51.5z
			 M42.6,45.4l4.7,4.5l5.4-22.1l-6.3,1.8L42.6,45.4z"/>
	</g>
	<g>
		<path fill="#FF1F71" d="M24,58.3c-0.1,0-0.3-0.1-0.4-0.1c-0.1-0.1-0.2-0.3-0.1-0.5l1.9-7.6c0.1-0.2,0.2-0.3,0.4-0.4L41.9,45
			c0.2-0.1,0.4,0,0.5,0.1l5.6,5.4c0.1,0.1,0.2,0.3,0.1,0.5c-0.1,0.2-0.2,0.3-0.4,0.4l-23.6,6.9C24.1,58.3,24.1,58.3,24,58.3z
			 M26.3,50.7L24.8,57l21.8-6.3l-4.7-4.5L26.3,50.7z"/>
	</g>
	<g>
		<path fill="#FF1F71" d="M6.3,41.3c-0.2,0-0.5-0.2-0.5-0.4c-0.1-0.3,0.1-0.6,0.4-0.7l7.2-2.1l3.9-15.7l-2-1.9
			c-0.2-0.2-0.2-0.5,0-0.8c0.2-0.2,0.5-0.2,0.8,0l2.3,2.2c0.1,0.1,0.2,0.3,0.1,0.5l-4,16.3c-0.1,0.2-0.2,0.3-0.4,0.4L6.3,41.3
			C6.4,41.3,6.3,41.3,6.3,41.3z"/>
	</g>
	<g>
		<path fill="#FF1F71" d="M11.1,21.3"/>
	</g>
	<g>
		
			<rect x="7.8" y="20.9" transform="matrix(-0.9711 -0.2387 0.2387 -0.9711 9.7095 63.1721)" fill="#FF1F71" width="1.8" height="20.1"/>
	</g>
	<g>
		<path fill="#FF1F71" d="M17.8,22.8c-0.1,0-0.3-0.1-0.4-0.1l-2.3-2.2l0.8-0.8l2,1.9l15.5-4.5l1.6-6.3l-18.1,5.2l-0.3-1l19-5.5
			c0.2-0.1,0.4,0,0.5,0.1s0.2,0.3,0.1,0.5l-1.9,7.6c-0.1,0.2-0.2,0.3-0.4,0.4l-16.1,4.7C17.9,22.8,17.8,22.8,17.8,22.8z"/>
	</g>
	<g>
		
			<rect x="31.6" y="40.8" transform="matrix(-0.7149 -0.6992 0.6992 -0.7149 35.7386 97.1747)" fill="#FF1F71" width="12.1" height="1.1"/>
	</g>
	<g>
		<path fill="#FF1F71" d="M6.3,39.4"/>
	</g>
</g>
</svg>
