<?xml version="1.0" encoding="utf-8"?>
<!-- Generator: Adobe Illustrator 18.1.1, SVG Export Plug-In . SVG Version: 6.00 Build 0)  -->
<svg version="1.1" id="Layer_1" xmlns="http://www.w3.org/2000/svg" xmlns:xlink="http://www.w3.org/1999/xlink" x="0px" y="0px"
	 viewBox="0 0 59.4 68.2" enable-background="new 0 0 59.4 68.2" xml:space="preserve">
<g>
	<g>
		<path fill="#FF1F71" d="M26.7,60.5"/>
	</g>
	<g>
		<path fill="#FF1F71" d="M38.1,47.5c1.2,1.1,1.3,2.9,0.1,4.1s-2.9,1.3-4.1,0.1c-1.2-1.1-1.3-3-0.1-4.1C35,46.5,36.9,46.4,38.1,47.5
			z"/>
	</g>
	<g>
		<path fill="#FF1F71" d="M21.5,0.1c1.5-0.3,3,0.6,3.3,2.1c0.3,1.5-0.6,3-2.1,3.3c-1.5,0.3-3-0.6-3.3-2.1C19.1,1.9,20,0.4,21.5,0.1z
			"/>
	</g>
	<g>
		<path fill="#FF1F71" d="M23.3,30.6"/>
	</g>
	<g>
		<path fill="#FF1F71" d="M50.8,13.4"/>
	</g>
	<g>
		<path fill="#FF1F71" d="M50.8,13.4"/>
	</g>
	<g>
		<path fill="#FF1F71" d="M23.3,30.6"/>
	</g>
	<g>
		<path fill="#FF1F71" d="M35.9,49.5"/>
	</g>
	<g>
		
			<rect x="19.5" y="36.9" transform="matrix(-0.5542 -0.8324 0.8324 -0.5542 12.2497 82.1381)" fill="#FF1F71" width="17.3" height="1.9"/>
	</g>
	<g>
		<path fill="#FF1F71" d="M28.8,58.6c-0.1,0-0.3,0-0.4-0.1c-0.2-0.2-0.3-0.5-0.1-0.8l3.7-4.3c0.2-0.2,0.5-0.3,0.8-0.1
			c0.2,0.2,0.3,0.5,0.1,0.8l-3.7,4.3C29.1,58.5,28.9,58.6,28.8,58.6z"/>
	</g>
	<g>
		<path fill="#FF1F71" d="M51.4,13.6"/>
	</g>
	<g>
		<path fill="#FF1F71" d="M51.4,13.6"/>
	</g>
	<g>
		<path fill="#FF1F71" d="M23.3,30.6"/>
	</g>
	<g>
		<path fill="#FF1F71" d="M51.4,14.5L51.4,14.5l-16.6-0.4c-0.5,0-0.9-0.4-0.9-0.9c0-0.5,0.4-0.9,0.9-0.9h0l16.6,0.4
			c0.5,0,0.9,0.4,0.9,0.9C52.3,14.1,51.9,14.5,51.4,14.5z"/>
	</g>
	<g>
		<path fill="#FF1F71" d="M27,9.5c-0.2,0-0.3-0.1-0.4-0.2l-4.8-6.2c-0.2-0.2-0.1-0.6,0.1-0.8c0.2-0.2,0.6-0.1,0.8,0.1l4.8,6.2
			c0.2,0.2,0.1,0.6-0.1,0.8C27.2,9.5,27.1,9.5,27,9.5z"/>
	</g>
	<g>
		<path fill="#FF1F71" d="M29.5,18.4c-2.5,0-4.7-1.8-5.2-4.2c-0.3-1.4-0.1-2.8,0.7-4c0.8-1.2,2-2,3.4-2.4c0.4-0.1,0.8-0.1,1.2-0.1
			c2.5,0,4.7,1.8,5.2,4.2c0.3,1.4,0.1,2.8-0.7,4s-2,2-3.4,2.4C30.2,18.4,29.8,18.4,29.5,18.4z M29.5,8.8c-0.3,0-0.6,0-0.9,0.1
			c-1.1,0.3-2.1,0.9-2.7,1.9s-0.8,2.1-0.6,3.2c0.4,1.9,2.2,3.3,4.1,3.3c0.3,0,0.6,0,0.9-0.1c1.1-0.3,2.1-0.9,2.7-1.9
			s0.8-2.1,0.6-3.2C33.2,10.2,31.4,8.8,29.5,8.8z"/>
	</g>
	<g>
		<path fill="#FF1F71" d="M25.5,28.3c1.3,1.2,1.3,3.1,0.2,4.4c-1.2,1.3-3.1,1.3-4.4,0.1c-1.3-1.2-1.3-3.1-0.2-4.4
			C22.2,27.2,24.2,27.2,25.5,28.3z"/>
	</g>
	<g>
		<path fill="#FF1F71" d="M36.1,55.5L36.1,55.5c-3.2,0-5.8-2.5-5.9-5.7c-0.1-1.6,0.5-3.1,1.6-4.2c1.1-1.1,2.5-1.8,4.1-1.9
			c3.3-0.1,6,2.4,6.1,5.7c0.1,1.6-0.5,3.1-1.6,4.2c-1.1,1.1-2.5,1.8-4.1,1.9C36.2,55.5,36.1,55.5,36.1,55.5z M36.1,44.9
			c-0.1,0-0.1,0-0.2,0c-1.3,0-2.5,0.6-3.3,1.5c-0.9,0.9-1.3,2.1-1.3,3.4c0.1,2.6,2.2,4.6,4.7,4.6l0,0c0.1,0,0.1,0,0.2,0
			c1.3,0,2.5-0.6,3.3-1.5c0.9-0.9,1.3-2.1,1.3-3.4C40.7,46.9,38.7,44.9,36.1,44.9z"/>
	</g>
	<g>
		<path fill="#FF1F71" d="M50.8,10.9c1.5-0.3,3,0.6,3.3,2.1c0.3,1.5-0.6,3-2.1,3.3c-1.5,0.3-3-0.6-3.3-2.1
			C48.3,12.7,49.3,11.2,50.8,10.9z"/>
	</g>
	<g>
		<path fill="#FF1F71" d="M12.4,35c0.9,0.8,0.9,2.1,0.2,3c-0.8,0.9-2.1,0.9-3,0.2c-0.9-0.8-0.9-2.1-0.2-3
			C10.2,34.3,11.6,34.2,12.4,35z"/>
	</g>
	<g>
		
			<rect x="19" y="28.3" transform="matrix(-0.459 -0.8884 0.8884 -0.459 -0.4575 64.8753)" fill="#FF1F71" width="1.1" height="8.6"/>
	</g>
	<g>
		<path fill="#FF1F71" d="M11,42.3L11,42.3c-1.4,0-2.8-0.5-3.9-1.5c-2.4-2.1-2.6-5.8-0.4-8.2c1.1-1.2,2.7-1.9,4.3-1.9
			c1.4,0,2.8,0.5,3.9,1.5c1.1,1,1.8,2.5,1.9,4c0.1,1.5-0.4,3-1.5,4.2C14.2,41.6,12.7,42.3,11,42.3z M11,31.9c-1.3,0-2.6,0.6-3.5,1.5
			C5.8,35.3,6,38.3,7.9,40c0.9,0.8,2,1.2,3.1,1.2l0,0c1.3,0,2.6-0.6,3.5-1.5c0.8-0.9,1.3-2.1,1.2-3.4c-0.1-1.3-0.6-2.4-1.5-3.2
			C13.3,32.3,12.2,31.9,11,31.9z"/>
	</g>
	<g>
		<path fill="#FF1F71" d="M30.6,56c1.1,1,1.1,2.7,0.1,3.8S28,61,26.9,60c-1.1-1-1.1-2.7-0.1-3.8C27.8,55.1,29.5,55,30.6,56z"/>
	</g>
	<g>
		<path fill="#FF1F71" d="M47.5,65.5c-0.2,0-0.3-0.1-0.5-0.2l-8.2-11.1c-0.2-0.3-0.1-0.6,0.1-0.8c0.3-0.2,0.6-0.1,0.8,0.1l8.2,11.1
			c0.2,0.3,0.1,0.6-0.1,0.8C47.7,65.5,47.6,65.5,47.5,65.5z"/>
	</g>
	<g>
		<path fill="#FF1F71" d="M37.4,44.4l-1.9-0.1l1-15.2c0-0.2,0.1-0.4,0.2-0.6L50.7,13l1.4,1.2L38.3,29.6L37.4,44.4z"/>
	</g>
	<g>
		<path fill="#FF1F71" d="M47.5,68.2c-0.8,0-1.6-0.3-2.1-0.8c-0.6-0.6-1-1.4-1.1-2.2c-0.1-0.9,0.2-1.7,0.8-2.3
			c0.6-0.7,1.5-1.1,2.4-1.1c0.8,0,1.6,0.3,2.1,0.8c1.3,1.2,1.4,3.2,0.3,4.6C49.3,67.8,48.4,68.2,47.5,68.2z M47.5,62.5
			c-0.7,0-1.4,0.3-1.9,0.8c-0.4,0.5-0.7,1.1-0.6,1.8c0,0.7,0.3,1.3,0.8,1.7c0.5,0.4,1,0.6,1.7,0.6c0.7,0,1.4-0.3,1.9-0.8
			c0.9-1,0.8-2.6-0.2-3.5C48.7,62.7,48.1,62.5,47.5,62.5z"/>
	</g>
	<g>
		<path fill="#FF1F71" d="M28.9,10.3c1.5-0.3,3,0.6,3.3,2.1c0.3,1.5-0.6,3-2.1,3.3c-1.5,0.3-3-0.6-3.3-2.1
			C26.4,12.2,27.4,10.7,28.9,10.3z"/>
	</g>
	<g>
		<path fill="#FF1F71" d="M48.4,63.9c0.6,0.5,0.6,1.4,0.1,2c-0.5,0.6-1.4,0.6-2,0.1c-0.6-0.5-0.6-1.4-0.1-2
			C47,63.4,47.9,63.4,48.4,63.9z"/>
	</g>
	<g>
		<path fill="#FF1F71" d="M23.3,31.2c-0.3,0-0.5-0.2-0.5-0.5c0-0.3,0.2-0.6,0.5-0.6l14.1-1.4c0.3,0,0.6,0.2,0.6,0.5
			c0,0.3-0.2,0.6-0.5,0.6L23.3,31.2C23.4,31.2,23.4,31.2,23.3,31.2z"/>
	</g>
	<g>
		<path fill="#FF1F71" d="M39.1,27.4c1,0.9,1.1,2.4,0.2,3.4c-0.9,1-2.4,1.1-3.4,0.2c-1-0.9-1.1-2.4-0.2-3.4
			C36.5,26.6,38.1,26.5,39.1,27.4z"/>
	</g>
	<g>
		<path fill="#FF1F71" d="M23.4,31c-0.1,0-0.2,0-0.3-0.1c-0.5-0.2-0.7-0.7-0.6-1.2l4-12.1c0.2-0.5,0.7-0.7,1.2-0.6
			c0.5,0.2,0.7,0.7,0.6,1.2l-4,12.1C24.1,30.8,23.8,31,23.4,31z"/>
	</g>
</g>
</svg>
