<?xml version="1.0" encoding="utf-8"?>
<!-- Generator: Adobe Illustrator 19.2.1, SVG Export Plug-In . SVG Version: 6.00 Build 0)  -->
<svg version="1.1" id="Layer_1" xmlns="http://www.w3.org/2000/svg" xmlns:xlink="http://www.w3.org/1999/xlink" x="0px" y="0px"
	 viewBox="0 0 632.5 138" style="enable-background:new 0 0 632.5 138;" xml:space="preserve">
<style type="text/css">
	.st0{fill:#FFFFFF;}
	.st1{fill:none;stroke:#FFFFFF;stroke-width:4;stroke-miterlimit:10;}
</style>
<g>
	<path class="st0" d="M73.8,81c0,4.4-1.4,8-4.2,10.7c-1,1-2.2,1.9-3.6,2.5c-4.1,2.1-8.3,2-12.8,2h-22V43h23.7c0.4,0,3.8,0.1,7.3,2
		c2.2,1.1,4,2.8,5.3,4.8c1.6,2.4,2.4,5.3,2.4,8.7c0,2.5-0.5,4.6-1.2,6.6c-0.4,1.2-1.1,2.3-1.9,3.3C71.3,71,73.8,75.5,73.8,81
		 M50.9,51.2h-6.5H41v14.4h6.5h6c2.3,0,4.7-0.2,6.4-1.8c1.2-1.2,1.8-3,1.8-5.4c0-1.9-0.4-4.6-3.1-6.1c-1.2-0.8-2.5-1-3.8-1.1
		C53.5,51.2,52.2,51.2,50.9,51.2 M65.6,81c0-2.9-1.1-4.7-3.6-5.9c-1.9-0.9-3.9-1.2-5.9-1.2H41v14.2h1.7h5.8h6.2c2,0,4,0,5.8-0.6
		c1.2-0.3,2.6-0.8,3.5-1.7C65,84.7,65.6,83.1,65.6,81"/>
	<polygon class="st0" points="139.7,88.1 139.7,96.3 104.8,96.3 104.8,43 114.5,43 114.5,88.1 	"/>
	<polygon class="st0" points="198.8,42 170.7,97.3 180.8,97.3 185.6,88 198.8,62.3 211.9,88 216.7,97.3 226.8,97.3 	"/>
	<path class="st0" d="M278.4,97c-3.8,0-7.3-0.8-10.6-2.2c-3.3-1.3-6.2-3.3-8.7-5.8c-2.5-2.5-4.5-5.4-5.8-8.7
		c-1.4-3.4-2.2-6.9-2.2-10.6c0-3.7,0.8-7.3,2.2-10.6c1.3-3.3,3.3-6.2,5.8-8.7c2.5-2.6,5.4-4.5,8.7-5.8c3.4-1.4,6.9-2.2,10.6-2.2
		c4.3,0,8.5,1,12.3,2.9c3.7,1.9,6.9,4.6,9.5,7.9l-7.2,5.4c-1.7-2.2-3.8-4-6.3-5.2c-2.6-1.3-5.4-2-8.2-2c-4.9,0-9.5,1.9-13,5.4
		c-3.5,3.4-5.4,8-5.4,13c0,4.9,1.9,9.5,5.4,12.9c3.4,3.5,8,5.4,13,5.4c3.2,0,6.5-0.9,9.3-2.5c2.8-1.7,5-4,6.6-6.8l7.8,4.5
		c-2.3,4.1-5.7,7.6-9.8,10C288.1,95.6,283.3,97,278.4,97"/>
	<polygon class="st0" points="364.5,43 352.2,43 330.8,66.2 330.8,72.7 352.1,96.3 364.3,96.3 340.1,69.5 	"/>
	<polygon class="st0" points="419.5,42 391.5,97.3 401.5,97.3 406.4,88 419.5,62.3 432.7,88 437.5,97.3 447.6,97.3 	"/>
	<path class="st0" d="M524.4,76.2c-0.5,5-2.8,10.4-6.3,14.1c-1.9,2-4.3,3.6-7,4.6c-2.8,1.1-6.2,1.7-9.8,1.7c-3.7,0-7-0.6-9.8-1.7
		c-2.7-1-5-2.6-7-4.6c-1.4-1.4-2.6-3.2-3.5-5c-1.2-2.3-2.1-4.9-2.5-7.6c-0.5-2.8-0.5-5.8-0.5-8.7V42.6h9.8v29
		c0,4.3,0.6,9.1,3.8,12.4c2.2,2.2,5.4,3.4,9.8,3.4c4.3,0,7.4-1.1,9.7-3.4c3.2-3.2,3.8-8,3.8-12.4v-29h9.8V69
		C524.6,71.5,524.7,73.9,524.4,76.2"/>
	<polygon class="st0" points="582.2,51.2 582.2,96.3 572.4,96.3 572.4,51.2 555.6,51.2 555.6,43 598.9,43 598.9,51.2 	"/>
</g>
<polyline class="st1" points="3.1,48.7 3.1,14.9 627,14.9 627,124.4 3.1,124.4 3.1,48.7 "/>
</svg>
