<?xml version="1.0" encoding="utf-8"?>
<!-- Generator: Adobe Illustrator 19.2.1, SVG Export Plug-In . SVG Version: 6.00 Build 0)  -->
<svg version="1.1" id="Layer_1" xmlns="http://www.w3.org/2000/svg" xmlns:xlink="http://www.w3.org/1999/xlink" x="0px" y="0px"
	 viewBox="0 0 632.5 138" style="enable-background:new 0 0 632.5 138;" xml:space="preserve">
<style type="text/css">
	.st0{fill:#FFFFFF;}
	.st1{fill:none;stroke:#FFFFFF;stroke-miterlimit:10;}
</style>
<g>
	<path class="st0" d="M78.2,81.1c0,4.3-1.4,8-4.2,10.7c-1,1-2.2,1.9-3.6,2.5c-4,2.1-8.3,2-12.8,2h-22V43.1h23.7c0.4,0,3.8,0.1,7.3,2
		c2.2,1.1,4,2.8,5.3,4.8c1.6,2.4,2.4,5.3,2.4,8.7c0,2.5-0.5,4.7-1.2,6.6c-0.4,1.2-1.1,2.3-1.9,3.3C75.8,71.1,78.2,75.5,78.2,81.1z
		 M55.3,51.3h-6.5c-1.1,0-2.2,0-3.5,0v14.4c0,0,4.6,0,6.5,0h6c2.3,0,4.7-0.2,6.4-1.8c1.2-1.2,1.8-3,1.8-5.4c0-1.9-0.4-4.6-3.1-6.1
		c-1.2-0.8-2.5-1-3.8-1.1C57.9,51.2,56.7,51.3,55.3,51.3z M70,81.1c0-2.9-1-4.7-3.6-5.9c-1.9-0.9-3.9-1.2-5.9-1.2H45.4v14.2h1.7
		c1.9,0,3.8,0,5.8,0H59c2,0,4,0,5.9-0.6c1.2-0.3,2.5-0.8,3.4-1.7C69.5,84.8,70,83.2,70,81.1z"/>
	<path class="st0" d="M144.2,88.1v8.2h-34.9V43.1h9.7v45.1H144.2z"/>
	<g>
		<polygon class="st0" points="203.2,40.7 175.2,96 185.2,96 190.1,86.7 203.2,61 216.3,86.6 221.1,96 231.2,96 		"/>
	</g>
	<path class="st0" d="M282.8,97.2c-3.8,0-7.3-0.8-10.6-2.2c-3.3-1.3-6.2-3.3-8.7-5.8c-2.5-2.5-4.5-5.4-5.8-8.7
		c-1.4-3.4-2.2-6.9-2.2-10.6c0-3.7,0.8-7.3,2.2-10.6c1.3-3.3,3.3-6.2,5.8-8.7c2.5-2.5,5.4-4.5,8.7-5.8c3.4-1.4,6.9-2.2,10.6-2.2
		c4.3,0,8.5,1,12.3,2.9c3.7,1.9,6.9,4.6,9.5,7.9l-7.2,5.4c-1.6-2.2-3.8-4-6.3-5.2c-2.6-1.3-5.4-2-8.2-2c-5,0-9.5,1.9-13,5.4
		c-3.5,3.4-5.4,8-5.4,13c0,4.9,1.9,9.5,5.4,12.9c3.4,3.5,8,5.4,13,5.4c3.2,0,6.5-0.9,9.3-2.5c2.8-1.7,5-4,6.6-6.8l7.8,4.5
		c-2.3,4.1-5.7,7.6-9.8,10C292.5,95.9,287.7,97.2,282.8,97.2z"/>
	<path class="st0" d="M335.3,66.3l21.4-23.2h12.3l-24.4,26.5l24.2,26.8h-12.1l-21.3-23.6"/>
	<polygon class="st0" points="424,40.7 395.9,96 406,96 410.8,86.7 424,61 437.1,86.6 441.9,96 452,96 	"/>
	<path class="st0" d="M528.8,76.7c-0.5,5-2.8,10.4-6.3,14.1c-1.9,2-4.3,3.6-7,4.6c-2.8,1.1-6.1,1.7-9.7,1.7c-3.7,0-7-0.6-9.8-1.7
		c-2.7-1-5-2.6-7-4.6c-1.4-1.4-2.5-3.2-3.5-5c-1.2-2.3-2.1-4.9-2.5-7.6c-0.5-2.8-0.5-5.8-0.5-8.7V43.1h9.7v29
		c0,4.3,0.6,9.1,3.8,12.4c2.2,2.2,5.4,3.4,9.8,3.4c4.3,0,7.4-1.1,9.7-3.4c3.2-3.2,3.8-8,3.8-12.4v-29h9.8v26.5
		C529.1,71.9,529.1,74.3,528.8,76.7z"/>
	<path class="st0" d="M586.6,51.3v45.1h-9.8V51.3H560v-8.2h43.3v8.2H586.6z"/>
</g>
<polyline class="st1" points="0,42.5 0,0 632.5,0 632.5,138 0,138 0,42.5 "/>
</svg>
