<?xml version="1.0" encoding="utf-8"?>
<!-- Generator: Adobe Illustrator 19.2.1, SVG Export Plug-In . SVG Version: 6.00 Build 0)  -->
<svg version="1.1" id="Layer_1" xmlns="http://www.w3.org/2000/svg" xmlns:xlink="http://www.w3.org/1999/xlink" x="0px" y="0px"
	 viewBox="0 0 29.4 29.4" style="enable-background:new 0 0 29.4 29.4;" xml:space="preserve">
<style type="text/css">
	.st0{fill:#2D2DD3;}
	.st1{fill:#FFFFFF;}
</style>
<path class="st0" d="M29.4,14.7c0,8.1-6.6,14.7-14.7,14.7C6.6,29.4,0,22.8,0,14.7S6.6,0,14.7,0C22.8,0,29.4,6.6,29.4,14.7"/>
<g>
	<path class="st1" d="M4.9,18.2l-2.1-6.4H4l1.5,4.9l1.4-4.9h1.2l1.4,4.9l1.5-4.9h1.2l-2.1,6.4H9l-1.4-4.7l-1.4,4.7H4.9z"/>
	<path class="st1" d="M19,15.6h-4.3V17H19v1.2h-4.3c-0.2,0-0.3,0-0.5-0.1c-0.1-0.1-0.3-0.1-0.4-0.3c-0.1-0.1-0.2-0.2-0.3-0.4
		c-0.1-0.1-0.1-0.3-0.1-0.5v-4.1c0-0.2,0-0.3,0.1-0.5c0.1-0.1,0.1-0.3,0.3-0.4c0.1-0.1,0.2-0.2,0.4-0.3c0.1-0.1,0.3-0.1,0.5-0.1h3.1
		c0.2,0,0.3,0,0.5,0.1c0.1,0.1,0.3,0.1,0.4,0.3s0.2,0.2,0.3,0.4c0.1,0.1,0.1,0.3,0.1,0.5V15.6z M14.7,12.9v1.4h3.1v-1.4H14.7z"/>
	<path class="st1" d="M26.6,17c0,0.2,0,0.3-0.1,0.5c-0.1,0.1-0.1,0.3-0.3,0.4c-0.1,0.1-0.2,0.2-0.4,0.3c-0.1,0.1-0.3,0.1-0.5,0.1
		h-3.3c-0.2,0-0.3,0-0.5-0.1c-0.1-0.1-0.3-0.1-0.4-0.3c-0.1-0.1-0.2-0.2-0.3-0.4C21,17.3,21,17.1,21,17V9.3h1.2v3.6
		c0-0.2,0-0.3,0.1-0.4c0.1-0.1,0.2-0.3,0.3-0.4c0.1-0.1,0.2-0.2,0.4-0.2c0.1-0.1,0.3-0.1,0.5-0.1h2.1c0.2,0,0.3,0,0.5,0.1
		c0.1,0.1,0.3,0.1,0.4,0.3c0.1,0.1,0.2,0.2,0.3,0.4c0.1,0.1,0.1,0.3,0.1,0.5V17z M22.1,12.9V17h3.3v-4.1H22.1z"/>
</g>
</svg>
